# AST/ASF file generated using VICON BodyLanguage
# -----------------------------------------------
:version 1.10
:name VICON
:units
  mass 1.0
  length 0.45
  angle deg
:documentation
   .ast/.asf automatically generated from VICON data using
   VICON BodyBuilder and BodyLanguage model FoxedUp or BRILLIANT.MOD
:root
   order TX TY TZ RX RY RZ
   axis XYZ
   position 0 0 0  
   orientation 0 0 0 
:bonedata
  begin
     id 1 
     name lhipjoint
     direction 0.578396 -0.714046 0.394458 
     length 2.21935 
     axis 0 0 0  XYZ
  end
  begin
     id 2 
     name lfemur
     direction 0.34202 -0.939693 0  
     length 6.39105  
     axis 0 0 20  XYZ
    dof rx ry rz
    limits (-160.0 20.0)
           (-70.0 70.0)
           (-60.0 70.0)
  end
  begin
     id 3 
     name ltibia
     direction 0.34202 -0.939693 0   
     length 6.99037   
     axis 0 0 20   XYZ
    dof rx
    limits (-10.0 170.0)
  end
  begin
     id 4 
     name lfoot
     direction 0.0582372 -0.160005 0.985397   
     length 2.06111   
     axis -90 7.62852e-016 20   XYZ
    dof rx rz
    limits (-45.0 90.0)
           (-70.0 20.0)
  end
  begin
     id 5 
     name ltoes
     direction 1.53556e-011 -4.21875e-011 1   
     length 1.04074   
     axis -90 7.62852e-016 20   XYZ
    dof rx
    limits (-90.0 20.0)
  end
  begin
     id 6 
     name rhipjoint
     direction -0.558179 -0.726269 0.40121   
     length 2.182  
     axis 0 0 0  XYZ 
  end
  begin
     id 7 
     name rfemur
     direction -0.34202 -0.939693 0   
     length 6.51172   
     axis 0 0 -20   XYZ
    dof rx ry rz
    limits (-160.0 20.0)
           (-70.0 70.0)
           (-70.0 60.0)
  end
  begin
     id 8 
     name rtibia
     direction -0.34202 -0.939693 0   
     length 7.02607   
     axis 0 0 -20   XYZ
    dof rx
    limits (-10.0 170.0)
 end
 begin
     id 9 
     name rfoot
     direction -0.0788856 -0.216737 0.973038   
     length 1.96734  
     axis -90 -7.62852e-016 -20   XYZ
    dof rx rz
    limits (-45.0 90.0)
           (-20.0 70.0)
  end
  begin
     id 10 
     name rtoes
     direction -1.53567e-011 -4.21783e-011 1   
     length 0.990825   
     axis -90 -7.62852e-016 -20   XYZ
    dof rx
    limits (-90.0 20.0)
  end
  begin
     id 11 
     name lowerback
     direction 0.00668177 0.999323 -0.0361741   
     length 1.7655   
     axis 0 0 0   XYZ
    dof rx ry rz
    limits (-20.0 45.0)
           (-30.0 30.0)
           (-30.0 30.0)
  end
  begin
     id 12 
     name upperback
     direction -0.00222086 0.99851 0.0545167   
     length 1.74912   
     axis 0 0 0   XYZ
    dof rx ry rz
    limits (-20.0 45.0)
           (-30.0 30.0)
           (-30.0 30.0)
  end
  begin
     id 13 
     name thorax
     direction -0.00733971 0.997496 0.0703443   
     length 1.75715   
     axis 0 0 0   XYZ
    dof rx ry rz
    limits (-20.0 45.0)
           (-30.0 30.0)
           (-30.0 30.0)
  end
  begin
     id 14 
     name lowerneck
     direction 0.0279797 0.994795 0.0979765   
     length 1.46939   
     axis 0 0 0   XYZ
    dof rx ry rz
    limits (-20.0 45.0)
           (-30.0 30.0)
           (-30.0 30.0)
  end
  begin
     id 15 
     name upperneck
     direction 0.00339187 0.976776 -0.214238   
     length 1.48018   
     axis 0 0 0   XYZ
    dof rx ry rz
    limits (-20.0 45.0)
           (-30.0 30.0)
           (-30.0 30.0)
  end
  begin
     id 16
     name head
     direction -0.00263506 0.996603 -0.0823096  
     length 1.4976  
     axis 0 0 0   XYZ
    dof rx ry rz
    limits (-20.0 45.0)
           (-30.0 30.0)
           (-30.0 30.0)
  end
  begin
     id 17 
     name lclavicle
     direction 0.894044 0.44508 -0.0508781  
     length 3.03024  
     axis 0 0 0   XYZ
    dof ry rz
    limits (-20.0 10.0)
           (0.0 20.0)
  end
  begin
     id 18 
     name lhumerus
     direction 1 -4.48961e-011 -2.39475e-018   
     length 4.4661   
     axis 180 -30 -90   XYZ
    dof rx ry rz
    limits (-60.0 90.0)
           (-90.0 90.0)
           (-90.0 90.0)
  end
  begin
     id 19
     name lradius
     direction 1 -4.48961e-011 9.29328e-028   
     length 3.41414   
     axis 180 -30 -90   XYZ
    dof rx
    limits (-10.0 170.0)
  end
  begin
     id 20
     name lwrist
     direction 1 -4.48985e-011 1.53461e-026   
     length 1.70707   
     axis -1.09697e-014 90 90   XYZ
    dof ry
    limits (-180.0 0.0)
 end
  begin
     id 21 
     name lhand
     direction 1 -4.48966e-011 3.06923e-026   
     length 0.328298   
     axis -1.95843e-014 90 90   XYZ
    dof rx rz
    limits (-90.0 90.0)
           (-45.0 45.0)
  end
  begin
     id 22 
     name lfingers
     direction 1 -4.48893e-011 6.13845e-026   
     length 0.264682   
     axis -3.91686e-014 90 90   XYZ
    dof rx
    limits (0.0 90.0)
  end
  begin
     id 23
     name lthumb
     direction 0.707107 -6.34876e-011 0.707107   
     length 0.380032   
     axis -90 45 2.85299e-015   XYZ
    dof rx rz
    limits (-45.0 45.0)
           (-45.0 45.0)
  end
  begin
     id 24 
     name rclavicle
     direction -0.936955 0.347862 -0.0332887   
     length 3.26927  
     axis 0 0 0   XYZ 
    dof ry rz
    limits (-10.0 20.0)
           (-20.0 0.0)
  end
  begin
     id 25 
     name rhumerus
     direction -1 -4.4896e-011 1.78637e-018  
     length 4.40431   
     axis 180 30 90   XYZ
    dof rx ry rz
    limits (-90.0 60.0)
           (-90.0 90.0)
           (-90.0 90.0)
  end
  begin
     id 26 
     name rradius
     direction -1 -4.48955e-011 9.34036e-027   
     length 3.04688   
     axis 180 30 90   XYZ
    dof rx
    limits (-10.0 170.0)
  end
  begin
     id 27 
     name rwrist
     direction -1 -4.49011e-011 1.53461e-026   
     length 1.52344   
     axis -1.09697e-014 -90 -90   XYZ
    dof ry
    limits (-180.0 0.0)
  end
  begin
     id 28
     name rhand
     direction -1 -4.48834e-011 3.06923e-026   
     length 0.500489   
     axis -1.95843e-014 -90 -90   XYZ
    dof rx rz
    limits (-90.0 90.0)
           (-45.0 45.0)
  end
  begin
     id 29
     name rfingers
     direction -1 -4.48967e-011 6.13845e-026   
     length 0.403507   
     axis -3.91686e-014 -90 -90   XYZ
    dof rx
    limits (0.0 90.0)
  end
  begin
     id 30
     name rthumb
     direction -0.707107 -6.34826e-011 0.707107   
     length 0.579358   
     axis -90 -45 -2.85299e-015   XYZ
    dof rx rz
    limits (-45.0 45.0)
           (-45.0 45.0)
  end
:hierarchy
  begin
    root lhipjoint rhipjoint lowerback
    lhipjoint lfemur
    lfemur ltibia
    ltibia lfoot
    lfoot ltoes
    rhipjoint rfemur
    rfemur rtibia
    rtibia rfoot
    rfoot rtoes
    lowerback upperback
    upperback thorax
    thorax lowerneck lclavicle rclavicle
    lowerneck upperneck
    upperneck head
    lclavicle lhumerus
    lhumerus lradius
    lradius lwrist
    lwrist lhand lthumb
    lhand lfingers
    rclavicle rhumerus
    rhumerus rradius
    rradius rwrist
    rwrist rhand rthumb
    rhand rfingers
  end

#!OML:ASF H:\IndianDance\Patient Classification 1\Patient 1\Session 1\dancer.ASF
:FULLY-SPECIFIED
:DEGREES
236
root -20.9203 14.5825 18.4775 -169.358 -5.05204 -182.443
lowerback 4.09662 0.88658 -1.48867
upperback -8.86393 0.135419 -2.35101
thorax -11.8312 -0.219922 -1.66974
lowerneck -13.2943 -9.82305 -7.37535
upperneck 21.2141 -13.027 1.23946
head 9.44716 -6.7754 -0.036234
rclavicle 4.87022e-015 1.27222e-014
rhumerus 7.7059 6.90985 -16.5206
rradius 19.9168
rwrist 29.345
rhand -48.0096 6.91957
rfingers 7.12502
rthumb -20.6776 -21.9989
lclavicle 4.87022e-015 1.27222e-014
lhumerus -17.9736 -5.71637 12.9565
lradius 21.7672
lwrist -14.7142
lhand -16.9814 10.8732
lfingers 7.12502
lthumb 9.25325 40.6501
rfemur -38.0776 -23.1884 8.63689
rtibia 50.1073
rfoot -13.8129 -5.3731
rtoes -5.54111
lfemur -9.44187 22.7031 3.73197
ltibia 25.3762
lfoot 6.15662 10.6543
ltoes 2.78779
237
root -20.7668 14.5792 18.4268 -169.289 -5.28259 -182.75
lowerback 4.18966 0.82858 -1.79586
upperback -8.85851 -0.00315364 -2.51863
thorax -11.8896 -0.272041 -1.66017
lowerneck -13.48 -9.6198 -7.28206
upperneck 21.3521 -12.7469 1.21513
head 9.50842 -6.63817 -0.0339524
rclavicle 2.05742e-014 -2.06736e-014
rhumerus 7.47394 7.02776 -16.4397
rradius 19.8746
rwrist 29.6448
rhand -48.1109 7.10442
rfingers 7.12502
rthumb -20.775 -21.8034
lclavicle 2.05742e-014 -2.06736e-014
lhumerus -17.9943 -5.61973 12.8124
lradius 21.6745
lwrist -15.2435
lhand -20.4892 9.86214
lfingers 7.12502
lthumb 5.86748 39.7609
rfemur -38.3751 -23.6771 8.99342
rtibia 50.9577
rfoot -14.6956 -5.24484
rtoes -4.74252
lfemur -9.77232 22.8257 4.00707
ltibia 25.8343
lfoot 7.16311 9.89553
ltoes 3.74587
238
root -20.6169 14.5738 18.3776 -169.25 -5.52013 -183.029
lowerback 4.31432 0.775539 -2.05917
upperback -8.83985 -0.127873 -2.67574
thorax -11.9514 -0.319432 -1.66598
lowerneck -13.6596 -9.41242 -7.18963
upperneck 21.4608 -12.461 1.20613
head 9.55958 -6.4961 -0.0239521
rclavicle 9.88954e-015 -1.27222e-014
rhumerus 7.22317 7.20056 -16.3246
rradius 19.856
rwrist 29.8671
rhand -48.2211 7.30873
rfingers 7.12502
rthumb -20.8809 -21.5875
lclavicle 9.88954e-015 -1.27222e-014
lhumerus -18.0012 -5.46863 12.6804
lradius 21.5641
lwrist -15.8849
lhand -24.0119 8.75452
lfingers 7.12502
lthumb 2.46591 38.72
rfemur -38.6285 -24.1047 9.35069
rtibia 51.7861
rfoot -15.5456 -5.18496
rtoes -3.98394
lfemur -10.2125 22.9615 4.28309
ltibia 26.6074
lfoot 7.86742 8.86539
ltoes 4.31988
239
root -20.4713 14.5661 18.3299 -169.236 -5.75137 -183.275
lowerback 4.46169 0.734539 -2.27026
upperback -8.80897 -0.228227 -2.82406
thorax -12.012 -0.358003 -1.6951
lowerneck -13.8503 -9.21118 -7.0812
upperneck 21.567 -12.1815 1.17986
head 9.61032 -6.35718 -0.0231368
rclavicle 1.9133e-014 -9.93923e-015
rhumerus 6.94988 7.38439 -16.1858
rradius 19.8565
rwrist 30.0412
rhand -48.3463 7.54174
rfingers 7.12502
rthumb -21.0011 -21.3412
lclavicle 1.9133e-014 -9.93923e-015
lhumerus -17.9855 -5.23767 12.5609
lradius 21.4346
lwrist -16.6942
lhand -27.5556 7.52447
lfingers 7.12502
lthumb -0.956715 37.5021
rfemur -38.8532 -24.4675 9.71101
rtibia 52.6002
rfoot -16.3652 -5.17614
rtoes -3.22035
lfemur -10.7559 23.1176 4.55562
ltibia 27.7014
lfoot 8.22457 7.5728
ltoes 4.37644
240
root -20.3303 14.5555 18.2837 -169.243 -5.96155 -183.486
lowerback 4.62546 0.710554 -2.4258
upperback -8.76678 -0.296654 -2.96293
thorax -12.0688 -0.384454 -1.74983
lowerneck -14.0527 -9.01252 -6.96526
upperneck 21.6673 -11.9039 1.14793
head 9.66085 -6.21854 -0.0256781
rclavicle -8.84592e-015 -1.27222e-014
rhumerus 6.66106 7.52905 -16.0397
rradius 19.869
rwrist 30.2171
rhand -48.4788 7.79477
rfingers 7.12502
rthumb -21.1284 -21.074
lclavicle -8.84592e-015 -1.27222e-014
lhumerus -17.9439 -4.98533 12.4508
lradius 21.2956
lwrist -17.6201
lhand -31.0499 6.17174
lfingers 7.12502
lthumb -4.33131 36.1074
rfemur -39.0598 -24.7539 10.0749
rtibia 53.4064
rfoot -17.1602 -5.20809
rtoes -2.42546
lfemur -11.3777 23.3032 4.8218
ltibia 29.0935
lfoot 8.20592 6.09122
ltoes 3.91119
241
root -20.1942 14.5422 18.2389 -169.265 -6.13935 -183.665
lowerback 4.79679 0.70674 -2.52648
upperback -8.71778 -0.329609 -3.09463
thorax -12.1214 -0.397605 -1.83288
lowerneck -14.2649 -8.81401 -6.84451
upperneck 21.7628 -11.6256 1.11478
head 9.71157 -6.07892 -0.0292882
rclavicle 8.89561e-015 1.03368e-014
rhumerus 6.35763 7.57808 -15.9175
rradius 19.8895
rwrist 30.4657
rhand -48.5986 8.03106
rfingers 7.12502
rthumb -21.2435 -20.8248
lclavicle 8.89561e-015 1.03368e-014
lhumerus -17.8809 -4.59494 12.3482
lradius 21.1493
lwrist -18.7404
lhand -34.4868 4.69091
lfingers 7.12502
lthumb -7.64945 34.5326
rfemur -39.2617 -24.9679 10.4448
rtibia 54.2068
rfoot -17.9316 -5.27169
rtoes -1.6429
lfemur -12.0585 23.5167 5.08138
ltibia 30.7388
lfoot 7.80665 4.5614
ltoes 3.22334
242
root -20.0632 14.5262 18.1952 -169.296 -6.27463 -183.82
lowerback 4.96591 0.726512 -2.57541
upperback -8.66265 -0.323291 -3.22482
thorax -12.1646 -0.396006 -1.94932
lowerneck -14.4833 -8.61527 -6.71605
upperneck 21.8534 -11.3468 1.07795
head 9.76152 -5.93859 -0.0350761
rclavicle -2.48481e-015 -1.98785e-014
rhumerus 6.04209 7.53872 -15.8151
rradius 19.9116
rwrist 30.7879
rhand -48.7171 8.27001
rfingers 7.12502
rthumb -21.3574 -20.573
lclavicle -2.48481e-015 -1.98785e-014
lhumerus -17.7914 -4.14311 12.2554
lradius 21.0126
lwrist -19.9133
lhand -37.8188 3.08448
lfingers 7.12502
lthumb -10.8645 32.7834
rfemur -39.463 -25.1008 10.8104
rtibia 55.0028
rfoot -18.6824 -5.36487
rtoes -0.886315
lfemur -12.7669 23.7704 5.3196
ltibia 32.572
lfoot 7.0955 3.1549
ltoes 2.55907
